<?xml version="1.0" encoding="UTF-8"?> <svg xmlns="http://www.w3.org/2000/svg" id="Tracey_Boards" data-name="Tracey Boards" viewBox="0 0 720 387.46"><defs><style>.cls-1{fill:#010101;}</style></defs><g id="Logo"><g id="Board"><path id="Board_-_2_-_Bottom" data-name="Board - 2 - Bottom" class="cls-1" d="M263.24,469a172.78,172.78,0,0,0,337.52,0H622.2a193.78,193.78,0,0,1-380.4,0Z" transform="translate(-72 -238.27)"></path><path id="Board_-_1_-_Top" data-name="Board - 1 - Top" class="cls-1" d="M241.8,395a193.78,193.78,0,0,1,380.4,0H600.76a172.78,172.78,0,0,0-337.52,0Z" transform="translate(-72 -238.27)"></path><rect id="Line_-_4" data-name="Line - 4" class="cls-1" x="525.09" y="499.64" width="2.21" height="53.12" transform="translate(-289.96 287.93) rotate(-45)"></rect><rect id="Line_-_3" data-name="Line - 3" class="cls-1" x="311.25" y="525.09" width="53.12" height="2.21" transform="translate(-345.13 154.71) rotate(-45)"></rect><rect id="Line_-_2" data-name="Line - 2" class="cls-1" x="499.64" y="336.7" width="53.12" height="2.21" transform="translate(-156.75 232.74) rotate(-45)"></rect><rect id="Line_-_1" data-name="Line - 1" class="cls-1" x="336.7" y="311.25" width="2.21" height="53.12" transform="translate(-211.92 99.54) rotate(-45)"></rect><path id="Ring_-_3_-_Bottom" data-name="Ring - 3 - Bottom" class="cls-1" d="M277.67,469A158.39,158.39,0,0,0,319,543.41l.78.78.78.78a158.65,158.65,0,0,0,222.82,0l.78-.78.78-.78A158.29,158.29,0,0,0,586.32,469h2.27a160.91,160.91,0,0,1-313.18,0Z" transform="translate(-72 -238.27)"></path><path id="Ring_-_3_-_Top" data-name="Ring - 3 - Top" class="cls-1" d="M275.41,395a160.91,160.91,0,0,1,313.18,0h-2.27A158.31,158.31,0,0,0,545,320.59l-.78-.78-.78-.78a158.65,158.65,0,0,0-222.82,0l-.78.78-.78.78h0A158.41,158.41,0,0,0,277.67,395Z" transform="translate(-72 -238.27)"></path><path id="Ring_-_2_-_Bottom" data-name="Ring - 2 - Bottom" class="cls-1" d="M333.12,469a105.61,105.61,0,0,0,197.76,0c.12-.33.25-.67.37-1h2.35c-.13.34-.24.68-.37,1A107.75,107.75,0,0,1,509,507.41q-.77.79-1.56,1.56h0a107.74,107.74,0,0,1-150.82,0h0q-.79-.77-1.56-1.56A107.75,107.75,0,0,1,330.77,469Z" transform="translate(-72 -238.27)"></path><path id="Ring_-_2_-_Top" data-name="Ring - 2 - Top" class="cls-1" d="M333.12,395a105.62,105.62,0,0,1,197.76,0l.37,1h2.35c-.12-.34-.24-.68-.37-1A107.66,107.66,0,0,0,509,356.59c-.51-.53-1-1-1.56-1.56a107.74,107.74,0,0,0-150.82,0q-.79.77-1.56,1.56h0A107.66,107.66,0,0,0,330.77,395Z" transform="translate(-72 -238.27)"></path><path id="Ring_-_1_-_Bottom" data-name="Ring - 1 - Bottom" class="cls-1" d="M379.81,469a62.78,62.78,0,0,0,4.57,5.71c.77.87,1.57,1.71,2.38,2.53s1.66,1.61,2.53,2.38a63.89,63.89,0,0,0,19,11.81,62.27,62.27,0,0,0,7.33,2.42,64.42,64.42,0,0,0,32.78,0,60.51,60.51,0,0,0,7.33-2.43,63.7,63.7,0,0,0,19-11.8c.86-.77,1.7-1.57,2.52-2.38s1.61-1.66,2.39-2.53a62.68,62.68,0,0,0,4.56-5.71H487a65,65,0,0,1-5.28,6.83,66.19,66.19,0,0,1-25.05,17.71,66.62,66.62,0,0,1-41.57,2.58,64.61,64.61,0,0,1-7.79-2.58,66.49,66.49,0,0,1-25.05-17.71A65,65,0,0,1,377,469Z" transform="translate(-72 -238.27)"></path><path id="Ring_-_1_-_Top" data-name="Ring - 1 - Top" class="cls-1" d="M379.81,395a64.19,64.19,0,0,1,4.57-5.71c.77-.86,1.57-1.7,2.38-2.52s1.66-1.61,2.53-2.39a64,64,0,0,1,19-11.8,65,65,0,0,1,7.34-2.43,64.56,64.56,0,0,1,32.78,0,63,63,0,0,1,7.34,2.42,63.89,63.89,0,0,1,19,11.81c.86.77,1.7,1.57,2.52,2.38s1.61,1.66,2.38,2.52a64.19,64.19,0,0,1,4.57,5.71H487a65.79,65.79,0,0,0-5.28-6.83,68.21,68.21,0,0,0-5.89-5.89,66.08,66.08,0,0,0-19.16-11.81,64,64,0,0,0-7.79-2.58,66.17,66.17,0,0,0-60.72,14.39A65.76,65.76,0,0,0,377,395Z" transform="translate(-72 -238.27)"></path><path id="Peg_-_4" data-name="Peg - 4" class="cls-1" d="M455.5,497.07a4.17,4.17,0,1,1,0-5.89A4.17,4.17,0,0,1,455.5,497.07Z" transform="translate(-72 -238.27)"></path><path id="Peg_-_3" data-name="Peg - 3" class="cls-1" d="M414.4,497.07a4.17,4.17,0,1,1,0-5.89A4.17,4.17,0,0,1,414.4,497.07Z" transform="translate(-72 -238.27)"></path><path id="Peg_-_2" data-name="Peg - 2" class="cls-1" d="M449.6,366.93a4.17,4.17,0,1,1,0,5.89A4.17,4.17,0,0,1,449.6,366.93Z" transform="translate(-72 -238.27)"></path><path id="Peg_-_1" data-name="Peg - 1" class="cls-1" d="M408.5,366.93a4.17,4.17,0,1,1,0,5.89A4.17,4.17,0,0,1,408.5,366.93Z" transform="translate(-72 -238.27)"></path><path id="Center" class="cls-1" d="M440.67,432a8.67,8.67,0,1,1-8.67-8.68A8.67,8.67,0,0,1,440.67,432Z" transform="translate(-72 -238.27)"></path></g><g id="Tracey_Boards-2" data-name="Tracey Boards"><path id="S" class="cls-1" d="M788.49,403.36l.25,14.54h-2Q782.6,404.82,772,404.83q-5.85,0-9.08,3.23t-3.24,6.71a6.91,6.91,0,0,0,2.69,5.47q2.7,2.25,9.84,3.49a43.5,43.5,0,0,1,10.88,3,15,15,0,0,1,6.31,5.91,17.58,17.58,0,0,1,2.57,9.48,18.77,18.77,0,0,1-5.37,13.7,17.88,17.88,0,0,1-13.3,5.47q-6.48,0-12.91-4.8L756.49,460H755V444.34h1.8q2.46,7.4,6.89,11.11a14.74,14.74,0,0,0,9.69,3.72,15.17,15.17,0,0,0,9.59-3.44,10.65,10.65,0,0,0,4.36-8.71,10.13,10.13,0,0,0-3-7.46c-2-2-5.29-3.41-9.81-4.18a48.93,48.93,0,0,1-10.42-2.67,14.28,14.28,0,0,1-6.23-5.31,14.46,14.46,0,0,1-2.59-8.37,16.49,16.49,0,0,1,4.51-11.34q4.51-5,12.24-5a20,20,0,0,1,12.07,4.09,15,15,0,0,0,2.68-3.43Z" transform="translate(-72 -238.27)"></path><path id="D" class="cls-1" d="M697.55,457.88V406.12h-8.73V404h26.44a40.54,40.54,0,0,1,15,2.49q6.24,2.47,10.42,9.73a30.89,30.89,0,0,1,4.18,15.73,28.8,28.8,0,0,1-4.59,16q-4.6,7-10.59,9.54A38.11,38.11,0,0,1,715.1,460H688.82v-2.13Zm9.94-51.76v51.76h7.27a34.29,34.29,0,0,0,9.34-1.05,10.64,10.64,0,0,0,6-4.55,21.88,21.88,0,0,0,3.2-8.9,96.47,96.47,0,0,0,.83-14.08q0-10.44-2.65-15.58t-6.5-6.37a33.64,33.64,0,0,0-10-1.23Z" transform="translate(-72 -238.27)"></path><path id="R" class="cls-1" d="M634.43,457.88V406.12h-8.81V404h30.7a39.11,39.11,0,0,1,9.88,1,13.12,13.12,0,0,1,6.66,4.33,11.25,11.25,0,0,1,2.8,7.54,10.52,10.52,0,0,1-4.09,8.6q-4.1,3.3-13.87,5v.21A24,24,0,0,1,669.21,436q4.49,4,4.49,13.45,0,5.43,1.27,7A4.37,4.37,0,0,0,678.5,458a13,13,0,0,0,3.51-.58v2a21.36,21.36,0,0,1-7,1.26q-6.88,0-9.73-3.85a12.27,12.27,0,0,1-2.76-7.52l.17-7.1a13.3,13.3,0,0,0-2.36-7.33q-2.35-3.61-10.71-3.61h-5.23v26.61h8.82V460H625.62v-2.13Zm9.94-51.76V429.3h7.52a32.19,32.19,0,0,0,7.4-.64,6.46,6.46,0,0,0,4.07-3.39c1-1.82,1.52-4.72,1.52-8.71,0-3.25-.51-5.64-1.54-7.14a6.34,6.34,0,0,0-3.74-2.78,25.52,25.52,0,0,0-5.74-.52Z" transform="translate(-72 -238.27)"></path><path id="A" class="cls-1" d="M595.25,442.55h-17.8l-5.72,15.33h10.36V460h-20.3v-2.13h7.73l20.42-55.18h1.3l19.59,55.18h7.52V460H591.66v-2.13h9.06Zm-17-2.13H594.5L586.6,418h-.16Z" transform="translate(-72 -238.27)"></path><path id="O" class="cls-1" d="M535.47,461.3q-10.86,0-18.44-9.1t-7.58-19.47a30.55,30.55,0,0,1,7.95-21.24q8-8.79,18.49-8.79,9.9,0,17.75,8.93a30.43,30.43,0,0,1,0,40.84Q545.75,461.31,535.47,461.3Zm.17-56.47a16.28,16.28,0,0,0-8.25,2.1q-3.66,2.11-5,7.34t-1.32,18.21a108.09,108.09,0,0,0,.75,14.33,16.66,16.66,0,0,0,3.83,8.85q3.06,3.51,9.62,3.51a17.11,17.11,0,0,0,8.05-2.13q4-2.13,5.26-8.37t1.23-19.2q0-11.73-1.52-16.21a11.4,11.4,0,0,0-4.89-6.45A15.06,15.06,0,0,0,535.64,404.83Z" transform="translate(-72 -238.27)"></path><path id="B" class="cls-1" d="M458.19,457.88V406.12h-8.65V404h28.95a56.25,56.25,0,0,1,8,.48,15.14,15.14,0,0,1,6.27,2.49,11.47,11.47,0,0,1,4.32,5,13.63,13.63,0,0,1,1.32,5.57q0,10-15.33,13.08v.21q17.3,2.79,17.29,14.37a13.63,13.63,0,0,1-1.54,6,14.21,14.21,0,0,1-4.93,5.45,17,17,0,0,1-6.92,2.86,57.16,57.16,0,0,1-8.87.57H449.54v-2.13Zm18.51-51.76h-8.57v23.52h7.69q7.81,0,10-3.05c1.45-2,2.18-5.24,2.18-9.61,0-3.42-.48-5.92-1.42-7.48a5.83,5.83,0,0,0-3.62-2.86A28.41,28.41,0,0,0,476.7,406.12Zm-1,25.65h-7.61v26.11H476a29.52,29.52,0,0,0,7-.67,7.58,7.58,0,0,0,4.45-3.57q1.85-2.91,1.84-9.13,0-6.64-2.78-9.69T475.74,431.77Z" transform="translate(-72 -238.27)"></path><path id="Y" class="cls-1" d="M362,404h28v2.13h-9.23l16.41,24.73,16.17-24.73H403.22V404h19.84v2.13h-7.27L398.25,432.9v25h9.31V460H378.82v-2.13h9.49V434.36l-18.8-28.24H362Z" transform="translate(-72 -238.27)"></path><path id="E" class="cls-1" d="M323.18,406.12v24h5.06a16.9,16.9,0,0,0,4.53-.52,6.14,6.14,0,0,0,3.34-2.82q1.49-2.3,1.69-7.19H340v23.73H337.8q-.33-6.76-2.61-8.92t-6.95-2.15h-5.06v25.61h11.41q9.69,0,13.43-4.08t4.44-12.55h2.13L354.05,460H304.38v-2.13h8.9V406.12h-8.9V404H352l1,14.95h-2.13c-.73-4.53-2.22-7.81-4.47-9.81s-6-3-11.28-3Z" transform="translate(-72 -238.27)"></path><path id="C" class="cls-1" d="M294.23,403.36V420h-1.79q-2.93-15.17-15.13-15.16-6.56,0-9.56,5.13t-3,21.64q0,13.57,1.3,18.47c.86,3.25,2.36,5.59,4.49,7a12.46,12.46,0,0,0,7,2.11,14.21,14.21,0,0,0,9.42-3.78q4.41-3.78,6.83-12.13h2l-.67,17.08H293.4a11,11,0,0,0-3-4.51q-6.6,5.48-13.58,5.47-8.85,0-16.16-8.39t-7.31-20.56q0-12.41,7.18-21t16.63-8.62A18.17,18.17,0,0,1,290,407.92a33.48,33.48,0,0,0,2.47-4.56Z" transform="translate(-72 -238.27)"></path><path id="A-2" data-name="A" class="cls-1" d="M225.81,442.55H208l-5.72,15.33h10.36V460h-20.3v-2.13h7.73L220.5,402.7h1.3l19.59,55.18h7.52V460H222.22v-2.13h9.06Zm-17-2.13h16.25L217.16,418H217Z" transform="translate(-72 -238.27)"></path><path id="R-2" data-name="R" class="cls-1" d="M139.42,457.88V406.12h-8.81V404h30.7a39.11,39.11,0,0,1,9.88,1,13.12,13.12,0,0,1,6.66,4.33,11.25,11.25,0,0,1,2.8,7.54,10.52,10.52,0,0,1-4.09,8.6q-4.09,3.3-13.87,5v.21A24,24,0,0,1,174.2,436q4.49,4,4.49,13.45,0,5.43,1.27,7a4.37,4.37,0,0,0,3.53,1.52,13,13,0,0,0,3.51-.58v2a21.36,21.36,0,0,1-7,1.26q-6.89,0-9.73-3.85a12.27,12.27,0,0,1-2.76-7.52l.17-7.1a13.3,13.3,0,0,0-2.36-7.33q-2.36-3.61-10.71-3.61h-5.23v26.61h8.82V460H130.61v-2.13Zm9.94-51.76V429.3h7.52a32.19,32.19,0,0,0,7.4-.64,6.46,6.46,0,0,0,4.07-3.39c1-1.82,1.52-4.72,1.52-8.71,0-3.25-.51-5.64-1.54-7.14a6.34,6.34,0,0,0-3.74-2.78,25.52,25.52,0,0,0-5.74-.52Z" transform="translate(-72 -238.27)"></path><path id="T" class="cls-1" d="M73.46,404h47.75L122.67,423h-2.13q-2-9.57-5.2-13.24a10.79,10.79,0,0,0-8.5-3.68h-4.55v51.76h10V460H82.36v-2.13h10V406.12H87.83a10.79,10.79,0,0,0-8.5,3.68q-3.24,3.68-5.2,13.24H72Z" transform="translate(-72 -238.27)"></path></g></g></svg> 